<?xml version="1.0" encoding="UTF-8" standalone="no"?><!DOCTYPE svg PUBLIC "-//W3C//DTD SVG 1.1//EN" "http://www.w3.org/Graphics/SVG/1.1/DTD/svg11.dtd"><svg width="100%" height="100%" viewBox="0 0 500 500" version="1.1" xmlns="http://www.w3.org/2000/svg" xmlns:xlink="http://www.w3.org/1999/xlink" xml:space="preserve" xmlns:serif="http://www.serif.com/" style="fill-rule:evenodd;clip-rule:evenodd;stroke-linejoin:round;stroke-miterlimit:1.41421;"><path d="M90,40c-27.495,0 -50,22.505 -50,50l0,320c0,27.495 22.505,50 50,50l168.32,0c1.08,0.178 2.182,0.178 3.262,0l56.738,0c1.08,0.178 2.182,0.178 3.262,0l88.418,0c27.495,0 50,-22.505 50,-50l0,-320c0,-27.495 -22.505,-50 -50,-50l-320,0Zm0,20l320,0c16.685,0 30,13.315 30,30l0,320c0,16.685 -13.315,30 -30,30l-80,0l0,-140l38.203,0l14.004,-70l-52.207,0l0,-20c0,-5.575 0.53,-6.011 2.402,-7.227c1.872,-1.215 7.656,-2.773 17.598,-2.773l30,0l0,-56.309l-5.703,-2.714c0,0 -22.971,-10.977 -54.297,-10.977c-22.5,0 -40.984,8.965 -52.813,23.75c-11.828,14.785 -17.187,34.583 -17.187,56.25l0,20l-30,0l0,70l30,0l0,140l-160,0c-16.685,0 -30,-13.315 -30,-30l0,-320c0,-16.685 13.315,-30 30,-30Zm230,90c20.791,0 33.874,4.585 40,7.012l0,22.988l-10,0c-11.508,0 -20.73,0.952 -28.496,5.996c-7.766,5.044 -11.504,14.619 -11.504,24.004l0,40l47.793,0l-5.996,30l-41.797,0l0,160l-40,0l0,-160l-30,0l0,-30l30,0l0,-40c0,-18.333 4.641,-33.535 12.813,-43.75c8.171,-10.215 19.687,-16.25 37.187,-16.25Z" style="fill:#fff;fill-rule:nonzero;"/></svg>