<?xml version="1.0" encoding="UTF-8" standalone="no"?>
<svg
   xmlns:dc="http://purl.org/dc/elements/1.1/"
   xmlns:cc="http://creativecommons.org/ns#"
   xmlns:rdf="http://www.w3.org/1999/02/22-rdf-syntax-ns#"
   xmlns:svg="http://www.w3.org/2000/svg"
   xmlns="http://www.w3.org/2000/svg"
   id="svg2"
   style="fill-rule:evenodd;clip-rule:evenodd;stroke-linejoin:round;stroke-miterlimit:1.41421;"
   xml:space="preserve"
   version="1.1"
   viewBox="0 0 500 500"
   height="100%"
   width="100%"><metadata
     id="metadata9"><rdf:RDF><cc:Work
         rdf:about=""><dc:format>image/svg+xml</dc:format><dc:type
           rdf:resource="http://purl.org/dc/dcmitype/StillImage" /><dc:title></dc:title></cc:Work></rdf:RDF></metadata><defs
     id="defs7" /><path
     style="fill:#ffffff;fill-opacity:1;fill-rule:nonzero"
     d="m 380.117,40 c -4.375,-0.039 -8.281,2.734 -9.648,6.914 L 320.742,200 179.258,200 129.531,46.914 c -1.328,-4.023 -5.039,-6.797 -9.297,-6.914 -4.257,-0.078 -8.086,2.5 -9.609,6.484 L 50.703,206.406 c -0.039,0 -0.039,0.039 -0.078,0.078 l -30,80 c -1.562,4.219 -0.156,8.946 3.516,11.602 l 219.922,159.922 0.039,0.078 c 0.039,0 0.039,0 0.039,0.039 0.117,0.078 0.273,0.156 0.39,0.234 0.157,0.079 0.274,0.196 0.43,0.274 0.039,0 0.039,0.039 0.078,0.039 0,0 0.039,0.039 0.078,0.039 0.039,0.039 0.078,0.078 0.156,0.078 0.04,0.039 0.118,0.078 0.157,0.117 0.195,0.078 0.429,0.196 0.664,0.274 l 0,0.039 c 0.234,0.078 0.469,0.156 0.664,0.234 0.039,0 0.039,0 0.078,0.039 0.156,0.039 0.312,0.078 0.508,0.156 0.078,0 0.156,0.04 0.273,0.04 0,0.039 0,0.039 0,0 0.196,0.078 0.391,0.117 0.586,0.156 0.274,0.039 0.508,0.078 0.781,0.117 0.391,0 0.821,0.039 1.211,0.039 0.391,-0.039 0.743,-0.039 1.094,-0.117 0.156,0 0.274,0 0.43,-0.039 l 0.078,0 c 0.078,-0.039 0.117,-0.039 0.195,-0.039 0.039,0 0.078,-0.039 0.156,-0.039 0.079,-0.039 0.196,-0.039 0.274,-0.078 0.156,-0.04 0.273,-0.079 0.391,-0.118 0.078,0 0.117,0 0.156,-0.039 l 0.117,0 c 0.156,-0.078 0.352,-0.156 0.508,-0.195 0.195,-0.078 0.351,-0.156 0.508,-0.234 0.039,0 0.039,0 0.078,-0.039 0.039,0 0.078,0 0.117,-0.04 l 0.234,-0.117 c 0.235,-0.117 0.43,-0.234 0.625,-0.351 0.078,-0.039 0.117,-0.078 0.157,-0.117 0.039,0 0.078,-0.04 0.117,-0.04 0.156,-0.117 0.312,-0.195 0.468,-0.312 l 0.079,-0.117 219.921,-159.883 c 3.633,-2.656 5.04,-7.383 3.477,-11.602 l -29.922,-79.726 c -0.039,-0.078 -0.078,-0.195 -0.078,-0.274 l -60,-160 C 387.891,42.617 384.258,40.039 380.117,40 Z M 119.336,80.273 158.242,200 74.453,200 Z m 261.328,0 44.922,119.727 -83.828,0 z M 185.781,220 314.219,220 250,417.656 Z M 63.125,230.078 196.875,399.023 42.031,286.406 Z m 373.75,0 21.094,56.328 -154.844,112.617 z"
     id="surface1" /></svg>