<?xml version="1.0" encoding="UTF-8" standalone="no"?><!DOCTYPE svg PUBLIC "-//W3C//DTD SVG 1.1//EN" "http://www.w3.org/Graphics/SVG/1.1/DTD/svg11.dtd"><svg width="100%" height="100%" viewBox="0 0 500 500" version="1.1" xmlns="http://www.w3.org/2000/svg" xmlns:xlink="http://www.w3.org/1999/xlink" xml:space="preserve" xmlns:serif="http://www.serif.com/" style="fill-rule:evenodd;clip-rule:evenodd;stroke-linejoin:round;stroke-miterlimit:1.41421;"><path id="surface1" d="M380.117,40c-4.375,-0.039 -8.281,2.734 -9.648,6.914l-49.727,153.086l-141.484,0l-49.727,-153.086c-1.328,-4.023 -5.039,-6.797 -9.297,-6.914c-4.257,-0.078 -8.086,2.5 -9.609,6.484l-59.922,159.922c-0.039,0 -0.039,0.039 -0.078,0.078l-30,80c-1.562,4.219 -0.156,8.946 3.516,11.602l219.922,159.922l0.039,0.078c0.039,0 0.039,0 0.039,0.039c0.117,0.078 0.273,0.156 0.39,0.234c0.157,0.079 0.274,0.196 0.43,0.274c0.039,0 0.039,0.039 0.078,0.039c0,0 0.039,0.039 0.078,0.039c0.039,0.039 0.078,0.078 0.156,0.078c0.04,0.039 0.118,0.078 0.157,0.117c0.195,0.078 0.429,0.196 0.664,0.274l0,0.039c0.234,0.078 0.469,0.156 0.664,0.234c0.039,0 0.039,0 0.078,0.039c0.156,0.039 0.312,0.078 0.508,0.156c0.078,0 0.156,0.04 0.273,0.04c0,0.039 0,0.039 0,0c0.196,0.078 0.391,0.117 0.586,0.156c0.274,0.039 0.508,0.078 0.781,0.117c0.391,0 0.821,0.039 1.211,0.039c0.391,-0.039 0.743,-0.039 1.094,-0.117c0.156,0 0.274,0 0.43,-0.039c0,0 0.039,0 0.078,0c0.078,-0.039 0.117,-0.039 0.195,-0.039c0.039,0 0.078,-0.039 0.156,-0.039c0.079,-0.039 0.196,-0.039 0.274,-0.078c0.156,-0.04 0.273,-0.079 0.391,-0.118c0.078,0 0.117,0 0.156,-0.039c0.039,0 0.078,0 0.117,0c0.156,-0.078 0.352,-0.156 0.508,-0.195c0.195,-0.078 0.351,-0.156 0.508,-0.234c0.039,0 0.039,0 0.078,-0.039c0.039,0 0.078,0 0.117,-0.04c0.078,-0.039 0.156,-0.078 0.234,-0.117c0.235,-0.117 0.43,-0.234 0.625,-0.351c0.078,-0.039 0.117,-0.078 0.157,-0.117c0.039,0 0.078,-0.04 0.117,-0.04c0.156,-0.117 0.312,-0.195 0.468,-0.312l0.079,-0.117l219.921,-159.883c3.633,-2.656 5.04,-7.383 3.477,-11.602l-29.922,-79.726c-0.039,-0.078 -0.078,-0.195 -0.078,-0.274l-60,-160c-1.484,-3.867 -5.117,-6.445 -9.258,-6.484Zm-260.781,40.273l38.906,119.727l-83.789,0l44.883,-119.727Zm261.328,0l44.922,119.727l-83.828,0l38.906,-119.727Zm-300,139.727l84.063,0l58.554,180.156l-142.617,-180.156Zm105.117,0l128.438,0l-64.219,197.656l-64.219,-197.656Zm149.492,0l84.063,0l-142.617,180.156l58.554,-180.156Zm-272.148,10.078l133.75,168.945l-154.844,-112.617l21.094,-56.328Zm373.75,0l21.094,56.328l-154.844,112.617l133.75,-168.945Z" style="fill:#fff;fill-rule:nonzero;"/></svg>