<?xml version="1.0" encoding="UTF-8" standalone="no"?><!DOCTYPE svg PUBLIC "-//W3C//DTD SVG 1.1//EN" "http://www.w3.org/Graphics/SVG/1.1/DTD/svg11.dtd"><svg width="100%" height="100%" viewBox="0 0 500 500" version="1.1" xmlns="http://www.w3.org/2000/svg" xmlns:xlink="http://www.w3.org/1999/xlink" xml:space="preserve" xmlns:serif="http://www.serif.com/" style="fill-rule:evenodd;clip-rule:evenodd;stroke-linecap:round;stroke-linejoin:round;stroke-miterlimit:10;"><g><path d="M90,450l320,0c22.09,0 40,-17.91 40,-40l0,-320c0,-22.09 -17.91,-40 -40,-40l-320,0c-22.09,0 -40,17.91 -40,40l0,320c0,22.09 17.91,40 40,40Z" style="fill:none;stroke:#5eff8e;stroke-width:20px;"/><path d="M110,200l60,0l0,190l-60,0l0,-190Z" style="fill:none;stroke:#5eff8e;stroke-width:20px;"/><path d="M140,170c-18,0 -30,-11.33 -30,-25.33c0,-14 12,-24.67 30,-24.67c18,0 29.25,10.67 30,24.67c0,14 -11.25,25.33 -30,25.33Z" style="fill:none;stroke:#5eff8e;stroke-width:19.76px;"/><path d="M390,390l-60,0c0,0 0,-92.57 0,-100c0,-20 -10,-40 -35,-40.43c-24.78,-0.44 -35,20.43 -35,40.43c0,9.09 0,100 0,100l-60,0l0,-190l60,0l0,25.61c0,0 19.3,-25.61 58.13,-25.61c39.65,0 71.87,27.26 71.87,82.61l0,107.39Z" style="fill:none;stroke:#5eff8e;stroke-width:20px;"/></g></svg>